<svg id="Layer_1" data-name="Layer 1" xmlns="http://www.w3.org/2000/svg" width="61.96316" height="124.94308" viewBox="0 0 154.9079 312.3577"><defs><style>.cls-1{fill:#cccccc;}.cls-2{fill:#162530;}</style></defs><title>jg-logo</title><path class="cls-1" d="M77.3062,312A114.5829,114.5829,0,0,1,.4669,281.949l-.7169-.6471V0H154.8553V281.3019l-.717.6471A114.5514,114.5514,0,0,1,77.3062,312Zm69.6294-34.2475V7.92H7.6766V277.7525a106.577,106.577,0,0,0,69.63,26.3346A106.6043,106.6043,0,0,0,146.9356,277.7525Z"/><polygon class="cls-1" points="120.845 35.201 120.845 117.803 104.219 117.803 104.219 51.835 50.387 51.835 50.387 179.687 33.76 179.687 33.76 35.201 120.845 35.201"/><path class="cls-2" d="M104.2187,134.4363h16.6261V260.4719a85.0239,85.0239,0,0,1-16.6261,7.8641,87.13,87.13,0,0,1-53.8321.863,84.6431,84.6431,0,0,1-16.6261-7.1543V196.32H50.3866v55.23a69.5568,69.5568,0,0,0,53.8321-1.1274V151.07H75.97V134.45h28.2487Z"/></svg>